Coordinates
version=1
nRows=9
nColumns=24
inDegrees=yes

Units are S.I. units (second, meters, Newtons, ...)
Angles are in degrees.

endheader
time	pelvis_tilt	pelvis_list	pelvis_rotation	pelvis_tx	pelvis_ty	pelvis_tz	hip_flexion_r	hip_adduction_r	hip_rotation_r	knee_angle_r	ankle_angle_r	subtalar_angle_r	mtp_angle_r	hip_flexion_l	hip_adduction_l	hip_rotation_l	knee_angle_l	ankle_angle_l	subtalar_angle_l	mtp_angle_l	lumbar_extension	lumbar_bending	lumbar_rotation
      4.00000000	     42.58889523	      3.33636917	     -0.45618934	      0.68625324	      1.07717025	     -0.33485118	     28.86600176	    -14.94330103	      8.19869058	    -74.95172391	    -17.96160267	      0.00000000	      0.00000000	     23.50547179	    -12.81119097	     -5.67235809	    -68.17534575	    -14.26087683	      0.00000000	      0.00000000	      0.00000000	      0.00000000	      0.00000000
      4.01000000	     42.57286255	      3.33290823	     -0.45750485	      0.68626359	      1.07714425	     -0.33484595	     28.88623720	    -14.94815357	      8.25655046	    -74.83964052	    -17.91617509	      0.00000000	      0.00000000	     23.52640963	    -12.82349480	     -5.68105215	    -68.17744665	    -14.26048180	      0.00000000	      0.00000000	      0.00000000	      0.00000000	      0.00000000
      4.02000000	     42.56031320	      3.33084589	     -0.45942572	      0.68627216	      1.07712285	     -0.33484390	     28.90301795	    -14.95009177	      8.29958387	    -74.72516212	    -17.86975141	      0.00000000	      0.00000000	     23.54119247	    -12.83237719	     -5.69084596	    -68.18045258	    -14.25828606	      0.00000000	      0.00000000	      0.00000000	      0.00000000	      0.00000000
      4.03000000	     42.55127016	      3.33038549	     -0.46268624	      0.68627872	      1.07711055	     -0.33484805	     28.91623576	    -14.94970816	      8.32658674	    -74.60887342	    -17.82453763	      0.00000000	      0.00000000	     23.54917927	    -12.83655374	     -5.69996137	    -68.18268477	    -14.25393873	      0.00000000	      0.00000000	      0.00000000	      0.00000000	      0.00000000
      4.04000000	     42.54577830	      3.33146141	     -0.46727407	      0.68627803	      1.07710668	     -0.33485602	     28.92505795	    -14.94799026	      8.33695159	    -74.49091754	    -17.78270463	      0.00000000	      0.00000000	     23.55023824	    -12.83598476	     -5.70734032	    -68.18285102	    -14.24798335	      0.00000000	      0.00000000	      0.00000000	      0.00000000	      0.00000000
      4.05000000	     42.54432424	      3.33377915	     -0.47228994	      0.68626857	      1.07711437	     -0.33486362	     28.92876460	    -14.94560041	      8.33043781	    -74.37076843	    -17.74604030	      0.00000000	      0.00000000	     23.54458072	    -12.83161263	     -5.71295065	    -68.18078694	    -14.24161791	      0.00000000	      0.00000000	      0.00000000	      0.00000000	      0.00000000
      4.06000000	     42.54779248	      3.33704774	     -0.47666790	      0.68625728	      1.07713835	     -0.33486862	     28.92700159	    -14.94235556	      8.30683044	    -74.24757238	    -17.71578464	      0.00000000	      0.00000000	     23.53288172	    -12.82476575	     -5.71748583	    -68.17734792	    -14.23621443	      0.00000000	      0.00000000	      0.00000000	      0.00000000	      0.00000000
      4.07000000	     42.55648698	      3.34114762	     -0.48003249	      0.68624669	      1.07717066	     -0.33487209	     28.91928294	    -14.93724278	      8.26600676	    -74.12102806	    -17.69261943	      0.00000000	      0.00000000	     23.51623526	    -12.81664272	     -5.72171857	    -68.17375867	    -14.23279279	      0.00000000	      0.00000000	      0.00000000	      0.00000000	      0.00000000
      4.08000000	     42.56975033	      3.34602828	     -0.48264501	      0.68623383	      1.07719826	     -0.33487955	     28.90508324	    -14.92883976	      8.20853068	    -73.99194261	    -17.67671361	      0.00000000	      0.00000000	     23.49586037	    -12.80813016	     -5.72597507	    -68.17095827	    -14.23168410	      0.00000000	      0.00000000	      0.00000000	      0.00000000	      0.00000000
